Coordinates
version=1
nRows=24
nColumns=24
inDegrees=yes

Units are S.I. units (second, meters, Newtons, ...)
Angles are in degrees.

endheader
time	pelvis_tilt	pelvis_list	pelvis_rotation	pelvis_tx	pelvis_ty	pelvis_tz	hip_flexion_r	hip_adduction_r	hip_rotation_r	knee_angle_r	ankle_angle_r	subtalar_angle_r	mtp_angle_r	hip_flexion_l	hip_adduction_l	hip_rotation_l	knee_angle_l	ankle_angle_l	subtalar_angle_l	mtp_angle_l	lumbar_extension	lumbar_bending	lumbar_rotation
      2.62000000	     14.87740049	     10.95360703	     -2.77881595	     -0.26599365	      1.00935303	     -0.03943733	     11.27614061	    -12.99909019	     -6.81232324	    -25.83480007	      3.60734705	     -5.04270295	     12.32225275	    -13.14007812	     13.22271783	    -15.04790362	    -12.99530506	     10.97758046	     12.78516145	     14.70658516	    -30.15003852	    -13.40600829	     22.46565185
      2.62500000	     14.84010190	     11.14173793	     -2.62039808	     -0.26096414	      1.00875876	     -0.03963021	     11.06540896	    -13.21606627	     -7.34594444	    -24.03111372	      3.21472365	     -4.23139300	     12.21415932	    -13.49567665	     13.38832876	    -14.82768015	    -12.90614009	     11.22327874	     12.93470004	     14.69730567	    -30.10657281	    -13.51020580	     22.22517026
      2.63000000	     14.82057637	     11.30217039	     -2.44282285	     -0.25589273	      1.00818234	     -0.03980267	     10.79338086	    -13.39440830	     -7.92271214	    -22.19388003	      2.79048663	     -3.40609839	     12.05226940	    -13.87883280	     13.51534695	    -14.59471379	    -12.81671004	     11.47757423	     13.08384544	     14.66422481	    -30.08419205	    -13.57966127	     21.96641905
      2.63500000	     14.80664177	     11.46866283	     -2.27151115	     -0.25076980	      1.00759838	     -0.03995459	     10.50062727	    -13.57271655	     -8.53205184	    -20.35799040	      2.35015469	     -2.53125330	     11.83306889	    -14.28173194	     13.65016339	    -14.36141322	    -12.70556070	     11.70730387	     13.19083988	     14.58675465	    -30.06455795	    -13.65682011	     21.68521459
      2.64000000	     14.76463968	     11.64541902	     -2.09966189	     -0.24566034	      1.00692082	     -0.04005747	     10.24230903	    -13.74843623	     -9.13264772	    -18.55318984	      1.92624419	     -1.59145285	     11.61399549	    -14.64407222	     13.78714360	    -14.12463199	    -12.61767135	     11.96778056	     13.31490155	     14.50160272	    -30.01766680	    -13.75033442	     21.42244192
      2.64500000	     14.74774871	     11.80835305	     -1.92664281	     -0.24054748	      1.00626568	     -0.04011941	      9.93879647	    -13.89698640	     -9.73160877	    -16.75606782	      1.49554806	     -0.61086453	     11.33899817	    -15.03559647	     13.90504157	    -13.85599198	    -12.52829829	     12.19658583	     13.40433789	     14.36002147	    -30.00133319	    -13.82864026	     21.16475933
      2.65000000	     14.68983697	     11.99315756	     -1.76189933	     -0.23543721	      1.00550611	     -0.04012618	      9.70368781	    -14.05931205	    -10.34209352	    -15.03143310	      1.07614517	      0.41549391	     11.12280593	    -15.37667541	     14.03977237	    -13.62082527	    -12.45157844	     12.48050677	     13.53380146	     14.25099841	    -29.93896970	    -13.94009064	     20.90189683
      2.65500000	     14.62966643	     12.17963542	     -1.60628984	     -0.23036830	      1.00471189	     -0.04005301	      9.48178585	    -14.20775806	    -10.92021793	    -13.36243843	      0.66127802	      1.45349650	     10.92959762	    -15.70268105	     14.17102016	    -13.37930241	    -12.39373417	     12.75091126	     13.64103726	     14.13856958	    -29.88058015	    -14.06236329	     20.66188422
      2.66000000	     14.56328742	     12.36560297	     -1.45678038	     -0.22536024	      1.00386689	     -0.03989467	      9.28707725	    -14.34217877	    -11.47519256	    -11.77205162	      0.27088119	      2.49940377	     10.77878396	    -16.00117215	     14.29168434	    -13.15198595	    -12.37202169	     13.04606827	     13.76286159	     14.05106945	    -29.82202123	    -14.19351000	     20.46005612
      2.66500000	     14.51843977	     12.55620642	     -1.32621954	     -0.22036675	      1.00303131	     -0.03966794	      9.08856120	    -14.47197887	    -12.01352988	    -10.26631942	     -0.09301651	      3.53971403	     10.62527406	    -16.32812980	     14.41942429	    -12.91986230	    -12.33044055	     13.30769742	     13.84616865	     13.93484470	    -29.78710628	    -14.33871435	     20.24689566
      2.67000000	     14.48842836	     12.73706704	     -1.20887956	     -0.21539774	      1.00221304	     -0.03935737	      8.89180145	    -14.57960903	    -12.52283814	     -8.85135227	     -0.42925039	      4.54334108	     10.44331159	    -16.66901769	     14.53402315	    -12.69410758	    -12.28563607	     13.53959299	     13.91244123	     13.76590072	    -29.77099818	    -14.48186978	     20.03584025
      2.67500000	     14.43997887	     12.91901799	     -1.10053109	     -0.21049482	      1.00134075	     -0.03895702	      8.75374487	    -14.67924412	    -12.99655869	     -7.56437367	     -0.71370812	      5.51162295	     10.27476589	    -16.96459706	     14.64078593	    -12.49064348	    -12.28346736	     13.80701794	     14.00403720	     13.59172115	    -29.73936962	    -14.63868839	     19.87383120
      2.68000000	     14.38861023	     13.09147027	     -1.00985956	     -0.20562099	      1.00044027	     -0.03848377	      8.66084193	    -14.76327512	    -13.45162252	     -6.41824370	     -0.94169702	      6.43167117	     10.16423027	    -17.24810748	     14.73613286	    -12.31069703	    -12.29121299	     14.11009760	     14.12362969	     13.47700671	    -29.70275632	    -14.79602715	     19.77751241
      2.68500000	     14.34424973	     13.24365241	     -0.92903910	     -0.20076833	      0.99955511	     -0.03794987	      8.58507958	    -14.82035690	    -13.86934251	     -5.39162617	     -1.13705462	      7.27776517	     10.07265723	    -17.53590322	     14.80934913	    -12.13473160	    -12.29503513	     14.34824364	     14.20570042	     13.35927681	    -29.67532441	    -14.93893867	     19.67973349
      2.69000000	     14.35336378	     13.38433745	     -0.84708112	     -0.19592259	      0.99875840	     -0.03739678	      8.47109598	    -14.86866370	    -14.31985539	     -4.49887050	     -1.27802174	      8.06425328	      9.98496690	    -17.88044918	     14.86528277	    -11.94111871	    -12.30239771	     14.60027124	     14.28649077	     13.22155744	    -29.70822123	    -15.06280133	     19.58025167
      2.69500000	     14.38663424	     13.52659468	     -0.77016117	     -0.19111317	      0.99798341	     -0.03679890	      8.36870933	    -14.92062054	    -14.75897211	     -3.76002024	     -1.34900426	      8.73000010	      9.88379985	    -18.24082518	     14.91710518	    -11.75033019	    -12.32712939	     14.86954644	     14.35539933	     13.02789630	    -29.77488539	    -15.19003458	     19.48214492
      2.70000000	     14.38918521	     13.62811685	     -0.70321067	     -0.18624802	      0.99719298	     -0.03618018	      8.32733726	    -14.92962908	    -15.17517828	     -3.16249237	     -1.40330528	      9.31587030	      9.81437419	    -18.57609362	     14.93035078	    -11.58301763	    -12.33275157	     15.10387834	     14.44083173	     12.86772124	    -29.79302603	    -15.28060737	     19.43910396
      2.70500000	     14.44880803	     13.72053351	     -0.62357158	     -0.18138169	      0.99650247	     -0.03557987	      8.23684708	    -14.93808186	    -15.64137005	     -2.69882160	     -1.42191215	      9.79584513	      9.75837843	    -18.96766294	     14.92520536	    -11.40463553	    -12.35521908	     15.33564086	     14.51196719	     12.70386519	    -29.87849153	    -15.34654506	     19.39969481
      2.71000000	     14.52536747	     13.79707956	     -0.53702503	     -0.17649783	      0.99584450	     -0.03497426	      8.14762346	    -14.93750264	    -16.08015068	     -2.37709966	     -1.37432055	     10.13834845	      9.71740474	    -19.37820845	     14.89695563	    -11.19729744	    -12.37992729	     15.56797067	     14.57797489	     12.53228489	    -29.98376732	    -15.39093997	     19.34490647
      2.71500000	     14.60594281	     13.85402744	     -0.45002544	     -0.17152882	      0.99521255	     -0.03440662	      8.06635142	    -14.92594628	    -16.52980974	     -2.18237524	     -1.30554343	     10.37803717	      9.68434811	    -19.80762979	     14.85209119	    -10.98701592	    -12.38382959	     15.78199023	     14.63029581	     12.33907847	    -30.08276635	    -15.40736973	     19.29014033
      2.72000000	     14.71824858	     13.88936598	     -0.36841317	     -0.16653658	      0.99464818	     -0.03386695	      7.97410267	    -14.90387278	    -16.98342223	     -2.12551792	     -1.25872755	     10.49227847	      9.65501340	    -20.27479536	     14.78581831	    -10.78012478	    -12.37965591	     15.98096368	     14.67843501	     12.12235163	    -30.21233225	    -15.39217901	     19.22728788
      2.72500000	     14.82784424	     13.92542429	     -0.27368258	     -0.16149171	      0.99408612	     -0.03334773	      7.88109009	    -14.89071589	    -17.41961039	     -2.15883545	     -1.19281867	     10.48839659	      9.63701697	    -20.73717012	     14.71343503	    -10.56422416	    -12.38958794	     16.17762678	     14.71250367	     11.90682521	    -30.33853058	    -15.36986969	     19.17498184
      2.73000000	     14.96608532	     13.95382381	     -0.18449241	     -0.15639938	      0.99357291	     -0.03286705	      7.76735398	    -14.88479647	    -17.85058551	     -2.30022244	     -1.13151080	     10.43269621	      9.62160739	    -21.23624989	     14.63448206	    -10.32402212	    -12.39083064	     16.36012560	     14.75817959	     11.57739447	    -30.48885160	    -15.33128340	     19.13318287
      2.73500000	     15.06299253	     13.96396348	     -0.07147074	     -0.15121000	      0.99302181	     -0.03240432	      7.67966504	    -14.85979441	    -18.22052772	     -2.49880982	     -1.08937234	     10.13774673	      9.61853202	    -21.69935593	     14.53065198	    -10.08205583	    -12.38787344	     16.54414483	     14.77054334	     11.43572487	    -30.58849282	    -15.26764595	     19.05644282
